<svg width="123" height="124" viewBox="0 0 123 124" fill="none" xmlns="http://www.w3.org/2000/svg">
<path d="M65.0916 11.2236V3.8049C65.0916 2.85346 64.7142 1.94125 64.0405 1.26847C63.3669 0.5957 62.452 0.217468 61.4993 0.217468V0.217468C60.5466 0.217468 59.6331 0.5957 58.9595 1.26847C58.2858 1.94125 57.907 2.85346 57.907 3.8049V11.2236C42.3047 12.1385 27.6362 18.9502 16.8808 30.2749C6.12544 41.5995 0.0899549 56.5881 0 72.196C2.32039 68.9576 5.38772 66.3236 8.94137 64.5173C12.495 62.7111 16.4311 61.7853 20.4184 61.8177C24.4057 61.85 28.3267 62.84 31.8505 64.7037C35.3743 66.5674 38.3968 69.2504 40.6642 72.526H41.0529C42.997 69.727 45.4966 67.3566 48.396 65.562C51.2953 63.7675 54.5319 62.587 57.907 62.0937V108.171C57.9367 110.082 57.2608 111.938 56.0071 113.384C54.7533 114.829 53.0104 115.762 51.1112 116.005C50.0625 116.107 49.0034 115.989 48.003 115.659C47.0027 115.328 46.0826 114.792 45.3018 114.086C44.5211 113.379 43.8967 112.517 43.4692 111.555C43.0417 110.593 42.8206 109.553 42.8195 108.501V106.477C43.5949 105.756 44.1355 104.82 44.3701 103.789C44.6047 102.757 44.5234 101.679 44.1357 100.694C43.7481 99.71 43.0718 98.8649 42.1965 98.2694C41.3212 97.6738 40.2864 97.3557 39.2273 97.3557C38.1681 97.3557 37.1334 97.6738 36.258 98.2694C35.3827 98.8649 34.7078 99.71 34.3202 100.694C33.9325 101.679 33.8512 102.757 34.0858 103.789C34.3204 104.82 34.8596 105.756 35.635 106.477V108.07C35.5959 111.782 36.9346 115.375 39.3914 118.16C41.8482 120.945 45.2503 122.723 48.9418 123.152C50.9864 123.345 53.0482 123.111 54.9967 122.463C56.9453 121.815 58.7372 120.768 60.2574 119.389C61.7776 118.01 62.9933 116.329 63.8259 114.454C64.6584 112.579 65.0887 110.552 65.0916 108.501V62.0937C68.4692 62.5852 71.7105 63.7646 74.6125 65.5592C77.5144 67.3539 80.0154 69.7254 81.9612 72.526H82.3499C84.6156 69.2504 87.6367 66.5675 91.1593 64.7037C94.682 62.8399 98.6023 61.85 102.589 61.8177C106.575 61.7853 110.51 62.711 114.063 64.5173C117.615 66.3237 120.681 68.9576 123 72.196C122.913 56.5871 116.878 41.5967 106.122 30.2713C95.3659 18.946 80.6951 12.1351 65.0916 11.2236Z" fill="#010438"/>
</svg>
