<svg width="624" height="623" viewBox="0 0 624 623" fill="none" xmlns="http://www.w3.org/2000/svg">
<path d="M545.359 116.813V184.953C545.359 190.117 543.308 195.069 539.657 198.72C536.006 202.371 531.054 204.422 525.891 204.422C520.727 204.422 515.775 202.371 512.124 198.72C508.473 195.069 506.422 190.117 506.422 184.953V116.813H438.281C433.118 116.813 428.166 114.761 424.515 111.11C420.864 107.459 418.813 102.507 418.813 97.3438C418.813 92.1803 420.864 87.2284 424.515 83.5773C428.166 79.9262 433.118 77.875 438.281 77.875H506.422C516.749 77.875 526.653 81.9773 533.955 89.2795C541.257 96.5817 545.359 106.486 545.359 116.813ZM525.891 418.578C520.727 418.578 515.775 420.629 512.124 424.28C508.473 427.932 506.422 432.883 506.422 438.047V506.188H438.281C433.118 506.188 428.166 508.239 424.515 511.89C420.864 515.541 418.813 520.493 418.813 525.656C418.813 530.82 420.864 535.772 424.515 539.423C428.166 543.074 433.118 545.125 438.281 545.125H506.422C516.749 545.125 526.653 541.023 533.955 533.721C541.257 526.418 545.359 516.514 545.359 506.188V438.047C545.359 432.883 543.308 427.932 539.657 424.28C536.006 420.629 531.054 418.578 525.891 418.578ZM185.188 506.188H117.047V438.047C117.047 432.883 114.996 427.932 111.345 424.28C107.694 420.629 102.742 418.578 97.5781 418.578C92.4147 418.578 87.4627 420.629 83.8116 424.28C80.1605 427.932 78.1094 432.883 78.1094 438.047V506.188C78.1094 516.514 82.2117 526.418 89.5139 533.721C96.8161 541.023 106.72 545.125 117.047 545.125H185.188C190.351 545.125 195.303 543.074 198.954 539.423C202.605 535.772 204.656 530.82 204.656 525.656C204.656 520.493 202.605 515.541 198.954 511.89C195.303 508.239 190.351 506.188 185.188 506.188ZM97.5781 204.422C102.742 204.422 107.694 202.371 111.345 198.72C114.996 195.069 117.047 190.117 117.047 184.953V116.813H185.188C190.351 116.813 195.303 114.761 198.954 111.11C202.605 107.459 204.656 102.507 204.656 97.3438C204.656 92.1803 202.605 87.2284 198.954 83.5773C195.303 79.9262 190.351 77.875 185.188 77.875H117.047C106.72 77.875 96.8161 81.9773 89.5139 89.2795C82.2117 96.5817 78.1094 106.486 78.1094 116.813V184.953C78.1094 190.117 80.1605 195.069 83.8116 198.72C87.4627 202.371 92.4147 204.422 97.5781 204.422ZM246.271 344.354C211.593 359.508 183.041 385.916 165.232 419.308C163.676 422.258 162.924 425.565 163.052 428.897C163.18 432.229 164.184 435.469 165.962 438.29C167.656 441.175 170.074 443.569 172.976 445.233C175.878 446.898 179.165 447.776 182.511 447.781H440.958C444.304 447.776 447.59 446.898 450.493 445.233C453.395 443.569 455.813 441.175 457.507 438.29C459.285 435.469 460.289 432.229 460.417 428.897C460.545 425.565 459.793 422.258 458.237 419.308C440.428 385.916 411.876 359.508 377.198 344.354C387.267 335.306 395.312 324.235 400.806 311.863C406.3 299.491 409.119 286.099 409.078 272.563C409.078 246.745 398.822 221.986 380.567 203.73C362.311 185.475 337.552 175.219 311.734 175.219C285.917 175.219 261.157 185.475 242.902 203.73C224.646 221.986 214.391 246.745 214.391 272.563C214.35 286.099 217.169 299.491 222.663 311.863C228.157 324.235 236.202 335.306 246.271 344.354V344.354Z" fill="#87C5FF"/>
</svg>
